<svg width="545" height="352" viewBox="0 0 545 352" fill="none" xmlns="http://www.w3.org/2000/svg">
<rect width="544" height="352" rx="8" fill="#00122C"/>
<path d="M242 48V58" stroke="#8C98AB"/>
<path d="M8 110V120" stroke="#8C98AB"/>
<path d="M544 110V119.5" stroke="#445669"/>
<path d="M164 110V120" stroke="#8C98AB"/>
<path d="M86 110V120" stroke="#8C98AB"/>
<path d="M242 110V120" stroke="#8C98AB"/>
<path d="M320 110V120" stroke="#8C98AB"/>
<path d="M398 110V119.5" stroke="#8C98AB"/>
<path d="M476 110V119.5" stroke="#8C98AB"/>
<path d="M8 172V182" stroke="#8C98AB"/>
<path d="M86 172V182" stroke="#8C98AB"/>
<path d="M164 172V182" stroke="#8C98AB"/>
<path d="M242 172V182" stroke="#8C98AB"/>
<path d="M320 172V182" stroke="#8C98AB"/>
<path d="M398 172V181.5" stroke="#8C98AB"/>
<path d="M476 172V181.5" stroke="#8C98AB"/>
<path d="M8 234V243.5" stroke="#8C98AB"/>
<path d="M86 234V243.5" stroke="#8C98AB"/>
<path d="M164 234V243.5" stroke="#8C98AB"/>
<path d="M242 234V244" stroke="#8C98AB"/>
<path d="M320 234V244" stroke="#8C98AB"/>
<path d="M398 234V243.5" stroke="#8C98AB"/>
<path d="M476 234V243.5" stroke="#8C98AB"/>
<path d="M8 296V305.5" stroke="#8C98AB"/>
<path d="M86 296V305.5" stroke="#8C98AB"/>
<path d="M164 296V305.5" stroke="#8C98AB"/>
<path d="M242 296V306" stroke="#8C98AB"/>
<path d="M320 296V306" stroke="#8C98AB"/>
<path d="M320 48V58" stroke="#8C98AB"/>
<path d="M398 48V57.5" stroke="#8C98AB"/>
<path d="M475 48.5V58" stroke="#8C98AB"/>
<circle cx="87" cy="154" r="2" fill="#00B48F"/>
<circle cx="9" cy="154" r="2" fill="#00B48F"/>
<circle cx="165" cy="154" r="2" fill="#00B48F"/>
<circle cx="243" cy="154" r="2" fill="#00B48F"/>
<circle cx="321" cy="154" r="2" fill="#00B48F"/>
<circle cx="399" cy="154" r="2" fill="#00B48F"/>
<circle cx="477" cy="154" r="2" fill="#00B48F"/>
<circle cx="243" cy="216" r="4.5" stroke="#00B48F"/>
<circle cx="87" cy="216" r="2" fill="#00B48F"/>
<circle cx="9" cy="216" r="2" fill="#00B48F"/>
<circle cx="165" cy="216" r="2" fill="#00B48F"/>
<circle cx="243" cy="216" r="2" fill="#F3C25D"/>
<circle cx="321" cy="216" r="2" fill="#8C98AB"/>
<circle cx="399" cy="216" r="2" fill="#8C98AB"/>
<circle cx="477" cy="216" r="2" fill="#8C98AB"/>
<circle cx="87" cy="278" r="2" fill="#8C98AB"/>
<circle cx="9" cy="278" r="2" fill="#8C98AB"/>
<circle cx="165" cy="278" r="2" fill="#8C98AB"/>
<circle cx="243" cy="278" r="2" fill="#8C98AB"/>
<circle cx="321" cy="278" r="2" fill="#8C98AB"/>
<circle cx="399" cy="278" r="2" fill="#8C98AB"/>
<circle cx="477" cy="278" r="2" fill="#8C98AB"/>
<circle cx="87" cy="343" r="2" fill="#8C98AB"/>
<circle cx="9" cy="343" r="2" fill="#8C98AB"/>
<circle cx="165" cy="343" r="2" fill="#8C98AB"/>
<circle cx="243" cy="343" r="2" fill="#8C98AB"/>
<circle cx="321" cy="343" r="2" fill="#8C98AB"/>
<path d="M0 40.5H544" stroke="#55657D"/>
<path d="M0 102.5H544" stroke="#55657D"/>
<path d="M0 164.5H544" stroke="#55657D"/>
<path d="M0 226.5H544" stroke="#55657D"/>
<path d="M0 288.5H544" stroke="#55657D"/>
<path d="M78.5 102V352" stroke="#55657D"/>
<path d="M156.5 102V352" stroke="#55657D"/>
<path d="M234.5 40V352" stroke="#55657D"/>
<path d="M312.5 40V352" stroke="#55657D"/>
<path d="M390.5 40V352" stroke="#55657D"/>
<path d="M468 41L468 287" stroke="#8C98AB"/>
<path d="M540 20.5H503M100 20.5H78M141.5 20.5H120M116 20.5H104" stroke="#8C98AB"/>
<path d="M18.95 24.1C20.65 24.1 21.87 23.23 22.08 21.51H20.78C20.64 22.52 19.94 23.02 18.95 23.02C17.63 23.02 16.86 22.07 16.86 20.46V20.38C16.86 18.78 17.68 17.8 18.94 17.8C19.97 17.8 20.5 18.29 20.65 19.24H22C21.84 17.56 20.57 16.74 18.93 16.74C16.94 16.74 15.46 18.24 15.46 20.39V20.47C15.46 22.67 16.71 24.1 18.95 24.1ZM24.5509 24.1C25.3509 24.1 25.8109 23.81 26.1509 23.36V24H27.3409V20.57C27.3409 19.14 26.4209 18.66 25.2509 18.66C24.0809 18.66 23.1109 19.17 23.0109 20.39H24.1809C24.2409 19.87 24.5509 19.57 25.1809 19.57C25.8909 19.57 26.1309 19.92 26.1309 20.62V20.89H25.4809C23.9809 20.89 22.8009 21.33 22.8009 22.55C22.8009 23.64 23.5909 24.1 24.5509 24.1ZM24.8409 23.23C24.2409 23.23 24.0009 22.94 24.0009 22.5C24.0009 21.86 24.5909 21.65 25.5109 21.65H26.1309V22.17C26.1309 22.84 25.5809 23.23 24.8409 23.23ZM28.7578 24H29.9678V16.35H28.7578V24ZM33.7427 24.1C35.0827 24.1 35.9727 23.5 36.1427 22.4H34.9727C34.8827 22.91 34.5027 23.2 33.7727 23.2C32.8727 23.2 32.3727 22.64 32.3327 21.65H36.1627V21.3C36.1627 19.43 34.9927 18.66 33.6927 18.66C32.2027 18.66 31.0927 19.74 31.0927 21.36V21.44C31.0927 23.09 32.2027 24.1 33.7427 24.1ZM32.3527 20.84C32.4727 20.03 32.9627 19.54 33.6927 19.54C34.4427 19.54 34.9027 19.94 34.9627 20.84H32.3527ZM37.2434 24H38.4534V20.92C38.4534 20.09 39.0034 19.67 39.6834 19.67C40.4034 19.67 40.7234 20.03 40.7234 20.82V24H41.9334V20.71C41.9334 19.27 41.1934 18.66 40.1434 18.66C39.2834 18.66 38.7034 19.09 38.4534 19.6V18.77H37.2434V24ZM45.2874 24.1C46.0574 24.1 46.7274 23.64 47.0074 23.12V24H48.2174V16.35H47.0074V19.57C46.7174 19.05 46.1874 18.66 45.3374 18.66C43.9774 18.66 42.9874 19.72 42.9874 21.39V21.47C42.9874 23.17 43.9774 24.1 45.2874 24.1ZM45.5874 23.14C44.8074 23.14 44.2274 22.59 44.2274 21.44V21.36C44.2274 20.23 44.7474 19.61 45.6374 19.61C46.5174 19.61 47.0474 20.18 47.0474 21.33V21.41C47.0474 22.58 46.4274 23.14 45.5874 23.14ZM51.0255 24.1C51.8255 24.1 52.2855 23.81 52.6255 23.36V24H53.8155V20.57C53.8155 19.14 52.8955 18.66 51.7255 18.66C50.5555 18.66 49.5855 19.17 49.4855 20.39H50.6555C50.7155 19.87 51.0255 19.57 51.6555 19.57C52.3655 19.57 52.6055 19.92 52.6055 20.62V20.89H51.9555C50.4555 20.89 49.2755 21.33 49.2755 22.55C49.2755 23.64 50.0655 24.1 51.0255 24.1ZM51.3155 23.23C50.7155 23.23 50.4755 22.94 50.4755 22.5C50.4755 21.86 51.0655 21.65 51.9855 21.65H52.6055V22.17C52.6055 22.84 52.0555 23.23 51.3155 23.23ZM55.2024 24H56.4124V21.28C56.4124 20.17 57.0524 19.83 58.1124 19.82V18.69C57.2324 18.7 56.7424 19.09 56.4124 19.75V18.77H55.2024V24Z" fill="white"/>
<path d="M16 88.5H77" stroke="#00B48F"/>
<path d="M16 55.5C39.822 55.5 53.178 55.5 77 55.5M16 62.5H77M16 69.5H77" stroke="#445669"/>
</svg>
