<svg width="246" height="367" viewBox="0 0 246 367" fill="none" xmlns="http://www.w3.org/2000/svg">
<g filter="url(#filter0_d)">
<rect x="3" y="2" width="240" height="361" rx="4" fill="white"/>
</g>
<path d="M32 42.5H52" stroke="#00B48F"/>
<path d="M22 78.5H52" stroke="#C5CCD6"/>
<path d="M19 199H49" stroke="#00B48F" stroke-width="4"/>
<path d="M22 54.5H76" stroke="#111B2A"/>
<path d="M22 66.5H61" stroke="#C5CCD6"/>
<path d="M193 42.5L227 42.5" stroke="#C5CCD6"/>
<path d="M176 78.5L227 78.5" stroke="#C5CCD6"/>
<path d="M173 54.5H227" stroke="#C5CCD6"/>
<path d="M185.5 66.5H227" stroke="#C5CCD6"/>
<rect x="19" y="218" width="16" height="1" fill="#C5CCD6"/>
<rect x="51" y="218" width="56" height="1" fill="#C5CCD6"/>
<rect x="123" y="218" width="29" height="1" fill="#C5CCD6"/>
<rect x="204" y="218" width="23" height="1" fill="#C5CCD6"/>
<rect x="19" y="237" width="16" height="1" fill="#C5CCD6"/>
<rect x="51" y="237" width="56" height="1" fill="#C5CCD6"/>
<rect x="123" y="237" width="29" height="1" fill="#C5CCD6"/>
<rect x="203" y="237" width="24" height="1" fill="#C5CCD6"/>
<rect x="19" y="256" width="16" height="1" fill="#C5CCD6"/>
<rect x="51" y="256" width="56" height="1" fill="#C5CCD6"/>
<rect x="123" y="256" width="29" height="1" fill="#C5CCD6"/>
<rect x="212" y="256" width="15" height="1" fill="#C5CCD6"/>
<rect x="19" y="275" width="16" height="1" fill="#C5CCD6"/>
<rect x="51" y="275" width="56" height="1" fill="#C5CCD6"/>
<rect x="123" y="275" width="29" height="1" fill="#C5CCD6"/>
<rect x="204" y="275" width="23" height="1" fill="#C5CCD6"/>
<rect x="19" y="294" width="16" height="1" fill="#C5CCD6"/>
<rect x="51" y="294" width="56" height="1" fill="#C5CCD6"/>
<rect x="19" y="313" width="208" height="1" fill="#C5CCD6"/>
<rect x="19" y="218" width="208" height="1" fill="#C5CCD6"/>
<rect x="123" y="294" width="29" height="1" fill="#C5CCD6"/>
<rect x="198" y="294" width="29" height="1" fill="#C5CCD6"/>
<rect x="198" y="332" width="29" height="2" rx="1" fill="#00122C"/>
<rect x="19" y="332" width="18" height="2" fill="#00B887"/>
<rect x="195" y="329" width="35" height="8" rx="4" stroke="#00B887" stroke-width="2"/>
<path d="M23.25 26.1C24.83 26.1 25.88 25.13 25.88 23.89C25.88 22.46 25.01 21.98 23.33 21.75C22.09 21.57 21.85 21.28 21.85 20.7C21.85 20.15 22.27 19.76 23.08 19.76C23.9 19.76 24.33 20.08 24.46 20.83H25.68C25.54 19.46 24.62 18.76 23.08 18.76C21.59 18.76 20.59 19.64 20.59 20.81C20.59 22.15 21.4 22.67 23.11 22.9C24.27 23.09 24.6 23.34 24.6 24C24.6 24.66 24.04 25.1 23.25 25.1C22.04 25.1 21.75 24.5 21.66 23.78H20.38C20.48 25.13 21.3 26.1 23.25 26.1ZM28.8477 26.09C29.2177 26.09 29.4777 26.03 29.6677 25.96V25C29.4977 25.07 29.3177 25.1 29.0777 25.1C28.6977 25.1 28.4777 24.89 28.4777 24.43V21.68H29.6277V20.77H28.4777V19.62H27.2677V20.77H26.5677V21.68H27.2677V24.54C27.2677 25.53 27.8077 26.09 28.8477 26.09ZM32.4679 25.23C31.8679 25.23 31.6279 24.94 31.6279 24.5C31.6279 23.86 32.2179 23.65 33.1379 23.65H33.7579V24.17C33.7579 24.84 33.2079 25.23 32.4679 25.23ZM32.1779 26.1C32.9779 26.1 33.4379 25.81 33.7779 25.36V26H34.9679V22.57C34.9679 21.14 34.0479 20.66 32.8779 20.66C31.7079 20.66 30.7379 21.17 30.6379 22.39H31.8079C31.8679 21.87 32.1779 21.57 32.8079 21.57C33.5179 21.57 33.7579 21.92 33.7579 22.62V22.89H33.1079C31.6079 22.89 30.4279 23.33 30.4279 24.55C30.4279 25.64 31.2179 26.1 32.1779 26.1ZM38.1348 26.09C38.5048 26.09 38.7648 26.03 38.9548 25.96V25C38.7848 25.07 38.6048 25.1 38.3648 25.1C37.9848 25.1 37.7648 24.89 37.7648 24.43V21.68H38.9148V20.77H37.7648V19.62H36.5548V20.77H35.8548V21.68H36.5548V24.54C36.5548 25.53 37.0948 26.09 38.1348 26.09ZM42.3462 26.1C43.6862 26.1 44.5762 25.5 44.7462 24.4H43.5762C43.4862 24.91 43.1062 25.2 42.3762 25.2C41.4762 25.2 40.9762 24.64 40.9362 23.65H44.7662V23.3C44.7662 21.43 43.5962 20.66 42.2962 20.66C40.8062 20.66 39.6962 21.74 39.6962 23.36V23.44C39.6962 25.09 40.8062 26.1 42.3462 26.1ZM40.9562 22.84C41.0762 22.03 41.5662 21.54 42.2962 21.54C43.0462 21.54 43.5062 21.94 43.5662 22.84H40.9562ZM45.847 26H47.057V22.87C47.057 22.07 47.607 21.67 48.207 21.67C48.797 21.67 49.137 22 49.137 22.77V26H50.347V22.87C50.347 22.07 50.897 21.67 51.497 21.67C52.097 21.67 52.427 22 52.427 22.77V26H53.637V22.69C53.637 21.25 52.857 20.66 51.897 20.66C51.247 20.66 50.527 20.95 50.127 21.6C49.867 20.95 49.327 20.66 48.647 20.66C47.877 20.66 47.307 21.08 47.057 21.57V20.77H45.847V26ZM57.3266 26.1C58.6666 26.1 59.5566 25.5 59.7266 24.4H58.5566C58.4666 24.91 58.0866 25.2 57.3566 25.2C56.4566 25.2 55.9566 24.64 55.9166 23.65H59.7466V23.3C59.7466 21.43 58.5766 20.66 57.2766 20.66C55.7866 20.66 54.6766 21.74 54.6766 23.36V23.44C54.6766 25.09 55.7866 26.1 57.3266 26.1ZM55.9366 22.84C56.0566 22.03 56.5466 21.54 57.2766 21.54C58.0266 21.54 58.4866 21.94 58.5466 22.84H55.9366ZM60.8274 26H62.0374V22.92C62.0374 22.09 62.5874 21.67 63.2674 21.67C63.9874 21.67 64.3074 22.03 64.3074 22.82V26H65.5174V22.71C65.5174 21.27 64.7774 20.66 63.7274 20.66C62.8674 20.66 62.2874 21.09 62.0374 21.6V20.77H60.8274V26ZM68.6914 26.09C69.0614 26.09 69.3214 26.03 69.5114 25.96V25C69.3414 25.07 69.1614 25.1 68.9214 25.1C68.5414 25.1 68.3214 24.89 68.3214 24.43V21.68H69.4714V20.77H68.3214V19.62H67.1114V20.77H66.4114V21.68H67.1114V24.54C67.1114 25.53 67.6514 26.09 68.6914 26.09Z" fill="#00122C"/>
<defs>
<filter id="filter0_d" x="0" y="0" width="246" height="367" filterUnits="userSpaceOnUse" color-interpolation-filters="sRGB">
<feFlood flood-opacity="0" result="BackgroundImageFix"/>
<feColorMatrix in="SourceAlpha" type="matrix" values="0 0 0 0 0 0 0 0 0 0 0 0 0 0 0 0 0 0 127 0"/>
<feOffset dy="1"/>
<feGaussianBlur stdDeviation="1.5"/>
<feColorMatrix type="matrix" values="0 0 0 0 0 0 0 0 0 0.0705882 0 0 0 0 0.172549 0 0 0 0.13 0"/>
<feBlend mode="normal" in2="BackgroundImageFix" result="effect1_dropShadow"/>
<feBlend mode="normal" in="SourceGraphic" in2="effect1_dropShadow" result="shape"/>
</filter>
</defs>
</svg>
